/* XPM */
static char * dash16_xpm[]={
"16 16 206 2",
".p c None",
"a5 c None",
"aU c None",
"Qt c None",
"#x c #ffffff",
"be c #69452a",
"#9 c #786a5d",
"#q c #81807a",
"#3 c #858989",
".C c #9d9e9b",
"bl c #3f3936",
".u c #a5a9aa",
"#N c #deddd1",
".# c #a29e97",
"#W c #6f6e66",
"aR c #736a5f",
".6 c #897f72",
"#G c #79766e",
".v c #8a8986",
".e c #9c9c98",
".d c #8d8c87",
"a0 c #433b34",
".9 c #86837c",
"ak c #8b8479",
"#Z c #d6d9d3",
"an c #88847d",
"#u c #9c9b90",
".4 c #595047",
".a c #858078",
"aZ c #4e4741",
"aM c #6f6d69",
".G c #817e79",
"#K c #99988f",
"bd c #63615c",
"#. c #8b8985",
"#h c #918e87",
"a6 c #6d665d",
"aE c #85827d",
"aa c #88857e",
".V c #9c9d9a",
"az c #89837a",
".R c #8f887d",
"aN c #514b44",
"bg c #6e675e",
"ay c #767169",
".U c #7e7c76",
".M c #9b9993",
"#J c #b2b2ac",
"aC c #8a8781",
".P c #756f67",
".7 c #8c867d",
".Z c #918e86",
".Q c #746f68",
".H c #66615a",
"bj c #6f6a63",
"au c #7c766d",
"aD c #969590",
"aH c #635f5a",
"aP c #716b64",
"ax c #726c63",
"ah c #78746e",
"aj c #716c64",
"ap c #73716c",
".W c #7e7c76",
".A c #8f8c86",
".o c #94938d",
"## c #787774",
".f c #7e7a72",
"#w c #908d86",
"a. c #7b7973",
"bk c #645d55",
"#n c #99968e",
"#X c #a2a39d",
"aQ c #747069",
"#a c #645f57",
"a2 c #6a6762",
"aT c #5a5753",
"#1 c #7e7c75",
"aK c #6d685f",
"bf c #675f57",
".E c #75716b",
"#5 c #888680",
".J c #8f8c85",
"#e c #918e86",
"#6 c #a7a299",
"aX c #6f6961",
"ad c #a8aaa5",
"aL c #726e67",
"#j c #797774",
"#k c #8d8c8a",
"am c #8f8e88",
"a1 c #696561",
".5 c #746d64",
"#7 c #939089",
"ai c #6a665e",
".s c #757069",
"#s c #7a7974",
"#I c #81807c",
"#t c #8e8d87",
".L c #918e88",
".x c #928f87",
"#0 c #88867e",
"#H c #a09f9a",
"#L c #7e7b75",
"#S c #adada6",
"ab c #7a7872",
"#M c #84827b",
".t c #77746e",
"#8 c #827e76",
".T c #888680",
".D c #706d66",
"aY c #74706a",
"#v c #7d7a73",
"aI c #847f78",
"ac c #73726f",
"ao c #85827c",
"#4 c #888680",
"aq c #706d66",
"#Y c #7d7d79",
"#F c #686762",
"ba c #75726c",
".i c #7e7971",
".w c #827f79",
"#T c #615f5b",
"#f c #77736c",
".I c #817f79",
".F c #7f7b75",
".3 c #7b766f",
"#R c #9fa09a",
".O c #85837c",
"#B c #a4a39c",
"#g c #83817a",
"aF c #5c5750",
"b# c #6e6b66",
"aO c #655f58",
".K c #93928c",
"#O c #8e8d8c",
".0 c #7a756d",
"#d c #86847e",
"aJ c #6d6760",
".g c #7f7c75",
".m c #838079",
"a9 c #726b63",
".l c #8c8983",
".B c #908e89",
"aG c #5e5a54",
"aA c #766f66",
"aw c #756e66",
"#c c #858582",
".X c #8e8b85",
"b. c #6d675f",
"#2 c #797770",
"#V c #7e7d77",
"#l c #8d8b85",
"#o c #7c7a75",
".8 c #89867f",
"bc c #6d6a65",
"aS c #56524b",
".j c #736e67",
"av c #746e67",
".S c #837f77",
".1 c #77746d",
".n c #898882",
"af c #6f6b63",
".h c #7d7972",
"as c #6d6a66",
"a8 c #757069",
"#r c #898781",
"a4 c #595551",
"#C c #989994",
".r c #7c7973",
"#U c #82837e",
"a# c #787771",
".q c #7d7973",
"a7 c #6b665f",
"#p c #80807b",
"aB c #75716a",
"#i c #908d88",
".Y c #92918b",
".N c #8d8a84",
"aV c #706a63",
".k c #7d7b74",
"bh c #6a645c",
".c c #93918b",
"a3 c #635e57",
"bi c #66625b",
".b c #86827a",
"#y c #92908c",
"al c #908c84",
"#m c #86847e",
"bb c #6c6761",
"ar c #7e7c77",
".z c #888680",
".y c #7f7c76",
"#E c #76746f",
"#Q c #797775",
"#D c #7a7a75",
"aW c #645f59",
"ag c #706c65",
"ae c #726c63",
"at c #7a7872",
".2 c #76726a",
"#b c #7f7d77",
"#A c #6c6b6a",
"#P c #73716e",
"#z c #797876",
"QtQtQtQtQt.#.a.b.c.d.eQtQtQtQtQt",
"QtQtQt.f.g.h.i.j.k.l.m.n.oQtQtQt",
"QtQt.p.q.r.s.t.u.v.w.x.y.zQtQtQt",
"QtQt.A.B.C.D.E.F.G.H.I.J.K.LQtQt",
"Qt.M.N.O.P.Q.R.S.T.U.V.W.X.Y.ZQt",
".0.1.2.3.4.5.6.7.8.9#.###a#b#c#d",
"#e#f#g#h#i#j#k#l#m#n#o#p#q#r#s#t",
"#u#v#w#x#y#z#A#B#C#D#E#F#G#H#I#J",
"#K#L#M#N#O#P#Q#R#S#T#U#V#W#X#Y#Z",
"#0#1#2#3#4#5#6#7#8#9a.a#aaabacad",
"aeafagahaiajakalamanaoapaqarasat",
"QtauavawaxayazaAaBaCaDaEaFaGaHQt",
"QtQtaIaJaKaLaMaNaOaPaQaRaSaTQtQt",
"QtQtaUaVaWaXaYaZa0a1a2a3a4a5QtQt",
"QtQtQta6a7a8a9b.b#babbbcbdQtQtQt",
"QtQtQtQtbebfbgbhbibjbkblQtQtQtQt"};
