/* XPM */
static char * dash32_xpm[]={
"32 32 746 2",
"dO c None",
"Qt c None",
"gJ c #000000",
"iB c #514b48",
"eS c #959387",
".3 c #cec9c0",
"cZ c #fdfefd",
"aC c #000000",
"fV c #48433b",
"aw c #787978",
"iC c #645446",
"gq c #716c63",
"bR c #7d7062",
"bY c #9d9183",
"ao c #b8b2a7",
"cH c #ffffff",
"fH c #19161c",
"jx c #1e1b1f",
"f0 c #746d64",
"d3 c #a3a49e",
"b7 c #919190",
"bt c #59514a",
"bX c #5b5c5b",
"f2 c #5f574e",
"hP c #6e5d47",
"f1 c #6e665d",
"ad c #706e69",
"h9 c #7f776f",
"bO c #8e908f",
"cx c #a4a297",
"dl c #443e36",
"f3 c #60574f",
"fU c #8d8981",
"bZ c #918f86",
"#6 c #e6e9e1",
"je c #64574d",
"iV c #6d6660",
"bp c #837c71",
"ff c #d5d8d4",
"gu c #999b99",
"e4 c #d3dad6",
"bo c #877e73",
"ea c #ffffff",
"h3 c #67655f",
"ep c #8b8980",
"gv c #a1a099",
"aK c #bbbcb8",
"dy c #c3c4bf",
"dr c #c8cac5",
"fT c #7a7a76",
"dA c #ffffff",
"dW c #8d8b82",
"ds c #918f85",
"c0 c #949288",
"hv c #767472",
"iN c #7d8281",
"gw c #adaca5",
"ia c #5d574f",
"dV c #bcbeb9",
"eo c #c6c9c5",
"eY c #ffffff",
"hC c #746f66",
"gp c #8b867d",
"i9 c #8d908e",
"f6 c #34302d",
"hn c #5f5c58",
"bu c #78756f",
"d4 c #ffffff",
"h4 c #6c6a65",
"at c #74716c",
"i7 c #7b7c7b",
"fQ c #7b7d7c",
".p c #837f7a",
"ev c #9e9e9a",
"f7 c #716a62",
"ha c #736c64",
"a# c #817d76",
"iQ c #8a8881",
"ag c #8c8d8c",
"go c #837d75",
"#7 c #84817a",
"e3 c #cbcac5",
".I c #d2d3ce",
"iH c #6e6862",
"#f c #908b83",
"af c #a2a3a2",
".T c #a4a5a3",
"a. c #62605d",
"bv c #7f7d79",
"ah c #857f77",
"ei c #423e37",
"hH c #4a3f37",
"fR c #6d6c66",
"hG c #736f69",
".P c #746b60",
".8 c #786f65",
"#2 c #96928b",
"c6 c #b2b5b2",
"cX c #342f2c",
"eg c #737572",
"hD c #74716b",
"hE c #77746e",
"bn c #7d756b",
"fP c #7e807f",
"#t c #8a8781",
"hL c #8b8983",
"iK c #7f7d78",
"hg c #666762",
"#S c #756e66",
"cD c #7c7266",
"e1 c #96938e",
"#x c #797269",
"hl c #79726b",
"bV c #b0b1aa",
"an c #b9b8b2",
"eG c #6e675f",
"iw c #6f6d67",
"ac c #848380",
"cO c #bab9b3",
"gj c #564e46",
"ck c #665b51",
"gB c #666763",
".R c #67625c",
"#w c #79736c",
"i4 c #716e68",
"eU c #7b7773",
"gA c #8d8d87",
".S c #a1a2a0",
"hI c #504237",
"## c #716d67",
"hK c #7b7872",
"hc c #7f7e7a",
"eb c #4b423b",
"cn c #544a41",
"ht c #564f46",
"fk c #7b7c79",
"hq c #7c7771",
"f# c #888681",
"iM c #473d35",
"i5 c #483f37",
"fZ c #787167",
"bS c #e5e5dd",
"i6 c #41372f",
"fz c #51463d",
"hT c #6a6764",
"bi c #6d655c",
"#R c #766f67",
"ir c #6c6760",
"gk c #736a61",
"h0 c #7a746b",
"e7 c #6b655e",
"ij c #6f6e6b",
"cf c #787671",
"cg c #8a8983",
"dN c #979690",
"iL c #4e453d",
"jw c #57534e",
"av c #615d59",
"bj c #716960",
"fl c #7b7b78",
"eM c #57554e",
".d c #6e675f",
"fp c #88837c",
"fW c #999288",
"aE c #5c5953",
"#B c #68655f",
"hO c #6e6962",
"cd c #736f69",
"gl c #756e66",
"hY c #787269",
"bb c #7f7870",
"hw c #7f7970",
"hM c #898781",
"#e c #a5a29b",
"cW c #bcbebb",
"dR c #bfc1ba",
"ee c #61574e",
"#o c #62605c",
"#M c #75746f",
".m c #878783",
"#b c #898985",
"db c #a09d96",
".o c #c3c4be",
"in c #5f5c58",
"bz c #64635f",
"hm c #6d6a65",
"hp c #746e67",
"eC c #9b9b96",
"e8 c #c9d3ce",
"be c #50514a",
"#c c #70706c",
"hh c #74736d",
"fv c #756e66",
"fD c #77756e",
"aD c #908f8c",
"fb c #a4a49d",
"eO c #adada7",
"ek c #b3b5af",
"dp c #484441",
"io c #64625e",
"eF c #6a655e",
"eV c #6e6b63",
"ch c #716e69",
"fs c #807b73",
"#a c #898884",
".b c #928d86",
"dn c #adada7",
"bG c #babdba",
"iP c #48433f",
"ce c #6d6a66",
"i1 c #726a62",
"hF c #75726b",
"#s c #7e7a75",
"ho c #8b8a83",
"gF c #99a2a8",
"cB c #a8a59d",
"#1 c #bab8b1",
"aI c #6b6762",
"cs c #6d6a64",
"fy c #706a62",
"gL c #7f7a72",
".9 c #7f7c78",
"ax c #817b72",
"d0 c #918f88",
"bD c #a1aeb4",
"eh c #69675f",
"fx c #726b63",
"er c #75726d",
"ay c #78756e",
"dt c #97968c",
"jf c #625950",
"ae c #66625d",
".U c #6d6b64",
"#9 c #716d68",
"fw c #756f67",
"#X c #787670",
"#G c #928f88",
"dw c #94918a",
"co c #97948d",
"c4 c #99968e",
"cq c #5e5853",
"gg c #63625a",
".Q c #726d66",
"gn c #78746d",
"en c #b3b5ae",
"aB c #605d57",
"cr c #6f6b65",
"et c #86837c",
"a7 c #71706c",
"gz c #b0b1ac",
"#O c #7f7b75",
"bw c #8a8984",
"dX c #929188",
"#V c #989691",
"aA c #9f9e9a",
".W c #a29e96",
"dP c #514c44",
"gP c #6d655c",
"b# c #6d6860",
"bk c #6e675f",
"h7 c #6e6962",
"h2 c #6e6a64",
"iI c #6f685e",
"c1 c #949289",
"aq c #9c9c98",
"dz c #a9aaa4",
"eR c #aeb0aa",
"by c #6c6c69",
"cz c #6e6a64",
"i2 c #706960",
"dx c #827f78",
"hf c #8b867c",
"ej c #adada7",
"bA c #494743",
"gC c #52504c",
"#p c #63615d",
"i0 c #675f56",
"i8 c #6e6f6d",
"bH c #70695f",
"hi c #817f7a",
"ab c #87847e",
".q c #8f8c87",
"cC c #9e9b92",
".H c #a9a9a5",
"hA c #7b746b",
"au c #7e7c76",
"hU c #857f77",
".Y c #928e87",
".X c #9c978f",
"aj c #a9a69f",
"dU c #adaea8",
"d2 c #aeafaa",
"ie c #686461",
"d1 c #7e7b74",
"hN c #6e6861",
"g5 c #767571",
"e0 c #989792",
"aF c #9e9890",
"iv c #65615a",
"dM c #9e9a92",
"eH c #433e3a",
"bP c #6e6961",
"aR c #726a62",
"c5 c #8f8c85",
"fa c #96958e",
"ew c #e0dfdd",
"jJ c #5f5c59",
"iW c #696157",
"jA c #696158",
"fm c #6b6862",
"#k c #928f87",
"b5 c #9c9e9c",
"fd c #605e5d",
"c# c #78756f",
"fo c #888781",
".e c #7e7870",
"fq c #837d73",
".G c #959997",
"eN c #999891",
"#T c #6d675f",
".l c #93928c",
".c c #9b9892",
"#F c #b3b1aa",
".r c #737069",
"cb c #767470",
"#8 c #817e78",
"h. c #646059",
"iA c #67635e",
"aS c #766e65",
"jd c #656360",
"bq c #787168",
"cm c #827e76",
"#H c #8b8982",
"is c #69625c",
"du c #6a665f",
".n c #93918b",
"dJ c #999b97",
"cK c #9b9a94",
"as c #a1a09a",
"cU c #a8a69f",
"fj c #7e7b74",
"#K c #817e77",
"f4 c #7e7b74",
"eq c #8d8b84",
"id c #524e4a",
"em c #656361",
"dY c #706d67",
"gx c #86847e",
"e5 c #b4b3ab",
"eZ c #cfd0cb",
"dT c #585653",
"dd c #615d57",
"bl c #6f6860",
"jo c #68655f",
"g9 c #6e6e6c",
"b3 c #747676",
"fE c #8b8a83",
"aX c #908a81",
"c. c #9c9b96",
"ga c #605f5c",
"bJ c #686763",
"i# c #6d6961",
"g4 c #8b8a86",
"a3 c #989792",
"dQ c #9b9a94",
"gT c #827a71",
"#u c #85847e",
"gM c #685f55",
"bQ c #736c63",
"if c #817b73",
"a2 c #94928c",
"ct c #a4a39b",
"hX c #5c544d",
"fL c #71706c",
"fF c #7e7d76",
"i. c #807d76",
"#g c #8e8b84",
"bh c #67635e",
"h1 c #797670",
"gU c #888077",
"dq c #9c9b95",
"#Y c #a2a19b",
"e9 c #b6bcb7",
"im c #6a6864",
"#Z c #817e79",
"aM c #95948e",
"j# c #62615e",
"eX c #84817a",
"#v c #888782",
"aU c #8a837a",
"e# c #acaca5",
"hy c #716d67",
"fO c #75736c",
"bm c #7c756c",
"fh c #7d7971",
"hr c #625b51",
"hW c #68625a",
".N c #6b655f",
"g0 c #8d8982",
"cP c #959189",
"jn c #67625b",
"gZ c #817e78",
"cA c #86847f",
"bT c #918e86",
"fe c #989a95",
"cG c #515050",
"gy c #8f8e88",
"cy c #918f87",
"jg c #6a665e",
"gQ c #6f6860",
"iG c #6f6a65",
".7 c #7b766e",
"#W c #9f9b93",
"ed c #b0b8b3",
"#. c #79756f",
"b0 c #87857f",
"dH c #c5c7c1",
"fB c #6d6a66",
"c2 c #706c66",
"g2 c #8c8a84",
"jv c #71706e",
"a0 c #86837c",
"eQ c #686765",
"jB c #706960",
"gm c #737069",
"jI c #767069",
"iR c #7b7973",
"a6 c #807f7a",
"a5 c #8e8e89",
"hZ c #726a60",
"al c #75736f",
".k c #84827c",
"gr c #9c9890",
"ja c #5d564f",
"bN c #858079",
"#3 c #96938c",
"fc c #6b6a66",
"#y c #6c6862",
"gR c #6f685f",
"aP c #6f6c65",
"bs c #817e77",
".f c #858179",
".M c #8a8883",
"do c #92918d",
"g6 c #67645f",
"fX c #a49f96",
"iz c #484643",
"bW c #7c7b77",
"f9 c #86857e",
"eT c #88867e",
"eP c #777672",
"aW c #8c867d",
"ak c #9b9b95",
"g7 c #5c5954",
"hS c #635f59",
"bx c #7f7e7a",
"dv c #817e77",
"bU c #918e87",
"c3 c #817d77",
"bM c #848079",
"fY c #9a9890",
"#l c #807e79",
"el c #8b8a86",
"gV c #908a81",
"es c #7b7972",
"aH c #8d8e8c",
"cQ c #a7aaa5",
"c7 c #a8a59d",
"cJ c #5b5a59",
"h8 c #6f6861",
"cY c #908e89",
"hR c #4d4a46",
"f8 c #78746e",
"jp c #7a7975",
"eW c #7c7972",
"#4 c #8b8a85",
"hz c #655e56",
"jq c #7a7670",
"g3 c #92918c",
"#J c #9d9c97",
"iZ c #57524c",
"jb c #605b55",
"aQ c #756f68",
"b6 c #95928b",
"dL c #a6a8a2",
"iO c #66635f",
"gS c #756f67",
"ft c #817d75",
"ib c #665f56",
"hd c #676159",
"aT c #736d66",
"fg c #7f7c75",
".D c #807d78",
"#Q c #82807b",
"fI c #838480",
"a4 c #979792",
"iU c #534f4b",
"hj c #54483e",
"fG c #6e6c67",
".u c #7c7871",
"#n c #7d7b75",
"a1 c #838079",
"ix c #656058",
"gO c #777269",
".J c #79736b",
"cw c #8a8983",
"h5 c #655f57",
".2 c #a1a39f",
"df c #a9aca7",
"j. c #63605b",
".Z c #7f7c77",
"eu c #87847e",
"jC c #6f6961",
"#N c #7a7670",
".j c #7f7c76",
".4 c #7d7a73",
".g c #7b766f",
"#D c #979791",
"fC c #7b766f",
"dm c #8b8982",
"jj c #716b63",
"jH c #716c65",
"ik c #6b655d",
"jl c #726b63",
"gW c #7e7972",
"#A c #928f89",
"gt c #9b9a95",
"e6 c #9e9c94",
"e2 c #afaaa3",
"dI c #b1b6b1",
"hs c #45413d",
"cV c #898882",
"aL c #96938c",
"js c #645f59",
".O c #77736c",
"aV c #868077",
"ap c #95928c",
"f5 c #67635e",
"a8 c #736f69",
"fM c #68635d",
"hB c #716c62",
"ar c #797671",
"dZ c #7e7c75",
"g1 c #86837c",
"ba c #8e8a82",
"jk c #756f67",
"f. c #77736c",
"ca c #848079",
".x c #706b64",
"#j c #8d8b86",
".y c #5a564f",
"iD c #6f6a63",
".L c #7d7c77",
"bE c #878885",
"dS c #93938e",
"gK c #7a736a",
"ig c #7b766f",
"fr c #9a958c",
"aG c #a3a199",
"g# c #66635e",
".z c #5e5b55",
"fJ c #746f67",
".w c #7c7870",
"ai c #8b8780",
"ih c #605a52",
"gf c #66635c",
"ef c #79766f",
".C c #86837d",
"cl c #8a877f",
"jM c #645c53",
"jr c #76716b",
".a c #b6b5b1",
"aa c #7b7770",
"az c #82807b",
"#I c #85847f",
"#d c #878580",
".5 c #625d57",
"fS c #64615a",
"he c #7c766d",
"h# c #645f59",
"jy c #6e6459",
"hJ c #756f67",
".# c #8e8b86",
"#m c #95948e",
"gc c #b7bbb8",
"b. c #bcbfba",
"di c #3f3a35",
"hu c #64605b",
"ii c #65615b",
"#C c #787670",
"fu c #7a766f",
"ip c #5e574f",
"jD c #6c665e",
"jG c #706b65",
"b9 c #7a7670",
".B c #87847d",
"#E c #88857f",
"jL c #5f5b57",
"jN c #403a35",
"iq c #55504a",
".v c #7f7b74",
"eE c #8c8b85",
"it c #67625c",
"i3 c #706b63",
"iJ c #78746c",
"cT c #adb2ad",
"ci c #89867e",
"am c #928f88",
"iT c #545350",
"hx c #86817a",
"ic c #4f4c47",
"#U c #6c6a65",
"gG c #6c6b67",
"bc c #827f77",
"bF c #8d8c86",
"#P c #7e7b74",
"aN c #847f77",
".V c #85837d",
"br c #87847d",
"#5 c #8a8882",
"ez c #8f8b83",
"dg c #575450",
"d9 c #585655",
"jm c #736e66",
"gd c #645c52",
"bK c #77736c",
"#L c #6a655e",
"hV c #807b74",
"bd c #7a7870",
"#0 c #8c8a83",
"h6 c #6a6660",
"jK c #6c6359",
"cj c #8e8d87",
"dk c #888a85",
"cv c #76746f",
"aJ c #8e8b84",
"jz c #68625b",
"b2 c #888782",
"b8 c #645f57",
"gI c #6f716f",
"hb c #807b72",
"dF c #656361",
"g. c #6d6963",
"cp c #7f7c76",
"hk c #4e4640",
"eB c #5c5b5a",
"cc c #75716a",
"gi c #838079",
"cE c #aba8a2",
"cN c #8e8e89",
"e. c #aaaaa3",
"dG c #b0b1aa",
"d. c #7f7e7c",
"eI c #878984",
"gE c #8f8f8b",
"iy c #605b54",
"iu c #6a6660",
"hQ c #5c5750",
"#r c #797670",
"iE c #6f6a62",
"d7 c #777572",
".6 c #807e78",
"iY c #6b6760",
"eJ c #757671",
".A c #848079",
"eL c #8f918c",
"dc c #a0a09a",
"de c #63615d",
"da c #5a5957",
"bL c #79756f",
"gs c #8a867f",
"b4 c #74716b",
"cI c #aaaaa7",
".E c #76716a",
"fi c #7c7972",
"#i c #73706a",
"#q c #7c7870",
"cu c #7f7b75",
"bf c #6d665c",
"bI c #716c64",
".0 c #85847e",
"#h c #86847e",
"eA c #9c9b98",
"g8 c #5e5750",
"fA c #6d6962",
"ji c #82807a",
"aZ c #8f8d87",
"fn c #726e67",
".s c #7a766f",
"cF c #a2a2a0",
"fN c #69655f",
".t c #7e7b74",
"gh c #716d65",
"gD c #827e77",
"ey c #4b4a49",
"il c #6e6861",
"fK c #827e76",
"gb c #898781",
"ge c #6e665d",
"iX c #716c64",
"eD c #9c9c96",
"jc c #64605a",
"d8 c #797875",
"b1 c #7a7772",
"gH c #625d56",
"aY c #7e7970",
"jF c #6f6c67",
"cR c #7e7d78",
"jt c #706b63",
"bC c #797976",
"dh c #94948e",
"jE c #706a61",
"ju c #807e79",
"cS c #7e7d78",
".F c #888781",
"iS c #5d574f",
"bB c #696158",
"cM c #7f7d77",
"dj c #433e3a",
"aO c #9a9892",
"cL c #999891",
"iF c #5d5851",
"dK c #5f5e5a",
"jh c #716c64",
"#z c #88857e",
"gN c #6e6860",
".h c #7d786f",
"dB c #827f7b",
"ex c #878684",
".i c #93918b",
"ec c #615f5a",
"d5 c #656463",
"a9 c #97938c",
"bg c #736d65",
"c9 c #636362",
"dE c #6b6a68",
"eK c #6c6b65",
"dD c #6c6b6a",
"d6 c #716f6b",
"d# c #787775",
".K c #7e7a73",
".1 c #817d76",
"gX c #837b71",
"c8 c #868480",
"dC c #898784",
"gY c #8b8a84",
"QtQtQtQtQtQtQtQtQtQtQtQtQtQtQt.#.aQtQtQtQtQtQtQtQtQtQtQtQtQtQtQt",
"QtQtQtQtQtQtQtQtQt.b.c.d.e.f.g.h.i.j.k.l.m.n.oQtQtQtQtQtQtQtQtQt",
"QtQtQtQtQtQt.p.q.r.s.t.u.v.w.x.y.z.A.B.C.D.E.F.G.H.IQtQtQtQtQtQt",
"QtQtQtQtQtQt.J.K.L.M.N.O.P.Q.R.S.T.U.V.W.X.Y.Z.0.1.2QtQtQtQtQtQt",
"QtQtQtQtQt.3.4.5.6.7.8.9#.##Qt#a#bQt#c#d#e#f#g#h#i#jQtQtQtQtQtQt",
"QtQtQtQtQt#k#l#m#n#o#p#q#r#s#t#u#v#w#x#y#z#A#B#C#D#E#FQtQtQtQtQt",
"QtQtQtQt#G#H#I#JQtQt#K#L#M#N#O#P#Q#R#S#T#U#V#W#X#Y#Z#0#1QtQtQtQt",
"QtQtQt#2#3#4#5#6#7#8#9a.Qta#aaabacQtadaeafagahaiajakalamanQtQtQt",
"QtQtaoapaqarasatauQtavQtawaxayazaAQtaBaCQtaDQtaEaFaGaHaIaJaKQtQt",
"QtQtaLaMaNaOaPaQaRaSaTaUaVaWaXaYaZa0a1a2a3a4a5a6a7a8a9b.b#baQtQt",
"bbbcbdbebfbgbhbibjbkblbmbnbobpbqbrbsbtbubvbwbxbybzbAbBbCbDbEbFbG",
"bHbIbJbKbLbMbNbOQtbPbQbRQtQtQtbSbTbUbVQtQtQtbWbXbYbZb0b1b2b3b4b5",
"Qtb6b7b8b9c.c#cacbcccdcecfcgchcicjckclcmcncocpcqcrcsctcucvQtcwQt",
"cxcyczcAcBcCQtcDcEcFcGcHcIcJcKcLcMcNcOcPcQcRcScTQtQtcUcVcWcXcYcZ",
"c0c1c2c3c4c5Qtc6c7c8c9d.d#dadbdcdddedfdgdhdidjdkQtdldmdndodpdqdr",
"dsdtdudvdwdxdydzdAdBdCdDdEdFQtdGdHdIdJdKdLdMdNQtdOdPdQdRdSdTdUdV",
"dWdXdYdZd0d1d2d3d4d5d6d7d8d9Qte.e#eaebecedeeefegeheiejekelemeneo",
"epeqereseteuevQtewexeyezeAeBeCeDeEeFeGeHeIeJeKeLeMQteNeOePeQeReo",
"eSeTeUeVeWeXQtQteYeZe0e1e2e3e4e5e6e7QtQtQte8e9f.f#Qtfafbfcfdfeff",
"QtfgQtfhfifjfkflfmfnfofpfqfrfsftfufvfwfxfyfzfAfBfCfDfEfFfGfHfIQt",
"fJfKfLfMfNfOfPfQfRfSfTfUfVfWfXfYfZf0f1f2f3f4f5f6f7f8f9g.g#gagbgc",
"gdgegfggghgigjgkglgmgngogpgqgrgsgtgugvgwgxgygzgAgBgCgDgEgFgGgHgI",
"QtgJgKgLgMgNgOgPgQgRgSgTgUgVgWgXgYgZg0g1g2g3g4g5g6g7g8g9h.h#gJQt",
"QtQthahbhchdhehfhgQthhQtQthiQthjhkhlhmhnQthoQthphqhrhshthuhvQtQt",
"QtQtQthwhxhyhzhAhBhChDhEhFhGQthHhIhJhKQthLhMhNhOhPhQhRhShTQtQtQt",
"QtQtQtQthUhVhWhXhYhZh0h1h2h3h4h5h6h7h8h9i.i#iaQtibicidieQtQtQtQt",
"QtQtQtQtQtifigihiiijikiliminioipiqirisitiuiviwixiyiziAiBQtQtQtQt",
"QtQtQtQtQtiCiDiEiFiGiHiIiJiKQtiLiMQtiNiOiPiQiRiSiTiUiVQtQtQtQtQt",
"QtQtQtQtQtQtiWiXiYiZi0i1i2i3i4i5i6i7i8i9j.j#jajbjcjdQtQtQtQtQtQt",
"QtQtQtQtQtQtjejfjgjhjijjjkjljmjnjojpjqjrjsjtjujvjwjxQtQtQtQtQtQt",
"QtQtQtQtQtQtQtQtQtjyjzjAjBjCjDjEjFjGjHjIjJjKjLQtQtQtQtQtQtQtQtQt",
"QtQtQtQtQtQtQtQtQtQtQtQtQtQtQtjMjNQtQtQtQtQtQtQtQtQtQtQtQtQtQtQt"};
